<svg width="38" height="24" viewBox="0 0 38 24" fill="none" xmlns="http://www.w3.org/2000/svg">
<path d="M19.9386 21.2627C18.0304 21.2627 16.553 19.7238 16.553 17.8155L16.553 4.21156C16.553 2.30331 18.0304 0.764405 19.9386 0.764405C21.8469 0.764405 23.3242 2.30331 23.3242 4.21156L23.3242 17.8155C23.3242 19.7238 21.8469 21.2627 19.9386 21.2627Z" fill="#036089"/>
<path d="M23.4473 17.8155C23.4473 19.7238 21.9084 21.2627 20.0001 21.2627C18.0919 21.2627 16.5529 19.7238 16.5529 17.8155L16.5529 4.21156C16.5529 2.30331 18.0919 0.764405 20.0001 0.764405" fill="#03406D"/>
<path d="M17.5377 20.5849C16.1834 19.2307 16.1834 17.0762 17.5377 15.722L31.5725 1.62554C32.9268 0.271298 35.0813 0.271298 36.4355 1.62554C37.7897 2.97978 37.7897 5.13426 36.4355 6.4885L22.4006 20.5234C21.1079 21.8776 18.8919 21.8776 17.5377 20.5849Z" fill="#1C9AAF"/>
<path d="M17.5377 20.585C16.1835 19.2307 16.1835 17.0762 17.5377 15.722L31.5726 1.62558C32.9268 0.271336 35.0813 0.271337 36.4355 1.62558" fill="#1589AD"/>
<path d="M0.548742 23.3555L11.3211 21.2625L9.41287 19.3543L22.4628 6.36589C23.8171 5.01165 23.8171 2.85718 22.4628 1.50293C21.1086 0.148693 18.9541 0.148692 17.5999 1.50293L4.61147 14.4913L2.70322 12.5831L0.548742 23.3555Z" fill="#1C9AAF"/>
<path d="M22.4629 1.50293C21.1087 0.148693 18.9542 0.148693 17.5999 1.50293L4.61152 14.4913L2.70328 12.5831L0.548801 23.3555" fill="#1589AD"/>
</svg>
