<svg width="38" height="24" viewBox="0 0 38 24" fill="none" xmlns="http://www.w3.org/2000/svg">
<path d="M18.0614 2.7373C19.9696 2.7373 21.447 4.27622 21.447 6.18446V19.7884C21.447 21.6967 19.9696 23.2356 18.0614 23.2356C16.1531 23.2356 14.6758 21.6967 14.6758 19.7884V6.18446C14.6758 4.27622 16.1531 2.7373 18.0614 2.7373Z" fill="#036089"/>
<path d="M14.5527 6.18446C14.5527 4.27622 16.0916 2.7373 17.9999 2.7373C19.9081 2.7373 21.4471 4.27622 21.4471 6.18446V19.7884C21.4471 21.6967 19.9081 23.2356 17.9999 23.2356" fill="#03406D"/>
<path d="M20.4623 3.41508C21.8166 4.76932 21.8166 6.92379 20.4623 8.27804L6.42747 22.3745C5.07323 23.7287 2.91875 23.7287 1.56451 22.3745C0.210268 21.0202 0.210268 18.8657 1.56451 17.5115L15.5994 3.47663C16.8921 2.12239 19.1081 2.12239 20.4623 3.41508Z" fill="#1C9AAF"/>
<path d="M20.4623 3.41504C21.8165 4.76928 21.8165 6.92376 20.4623 8.278L6.42741 22.3744C5.07317 23.7287 2.91869 23.7287 1.56445 22.3744" fill="#1589AD"/>
<path d="M37.4513 0.644531L26.6789 2.73745L28.5871 4.6457L15.5372 17.6341C14.1829 18.9883 14.1829 21.1428 15.5372 22.4971C16.8914 23.8513 19.0459 23.8513 20.4001 22.4971L33.3885 9.50866L35.2968 11.4169L37.4513 0.644531Z" fill="#1C9AAF"/>
<path d="M15.5371 22.4971C16.8914 23.8513 19.0458 23.8513 20.4001 22.4971L33.3885 9.50866L35.2967 11.4169L37.4512 0.644531" fill="#1589AD"/>
</svg>
