<svg width="44" height="44" viewBox="0 0 44 44" fill="none" xmlns="http://www.w3.org/2000/svg">
<path d="M44.0004 22.0001C44.0004 9.84869 34.1506 0 22.0005 0C9.8498 0 0 9.84906 0 22.0001C0 34.1498 9.8498 44 22.0005 44C34.1506 43.9996 44.0004 34.1499 44.0004 22.0001Z" fill="#357180"/>
<path d="M34.4115 12.9017C31.2559 8.38415 26.0745 5.7976 20.5367 6.43186C15.2084 7.04188 10.9075 10.4872 8.77286 15.273C7.85891 15.2705 6.94532 15.2684 6.03137 15.266C5.54954 15.265 5.19386 15.8225 5.46482 16.2473C7.06654 18.7602 8.66864 21.2734 10.2704 23.7863C10.5406 24.2108 11.1266 24.2004 11.3962 23.7822C13.0105 21.2772 14.625 18.772 16.2396 16.2671C16.414 15.9965 16.3553 15.7349 16.1921 15.5542C16.0903 15.4003 15.9215 15.2906 15.6801 15.2899C14.83 15.2878 13.9801 15.2857 13.13 15.2836C17.0515 9.05176 26.5709 8.48308 31.0395 14.8807C32.4714 16.9296 35.858 14.9728 34.4115 12.9017Z" fill="white"/>
<path d="M19.8418 22.1164C19.8418 20.9882 20.7558 20.0742 21.8833 20.0742C23.0109 20.0742 23.9247 20.9882 23.9247 22.1164C23.9247 23.2433 23.0108 24.1572 21.8833 24.1572C20.7558 24.1572 19.8418 23.243 19.8418 22.1164Z" fill="#F7F7F7"/>
<path d="M38.4989 27.6392C36.8972 25.1263 35.2947 22.613 33.6927 20.1001C33.4224 19.6756 32.8364 19.686 32.5668 20.1043C30.9529 22.6092 29.3383 25.1145 27.7241 27.6194C27.5494 27.8903 27.6085 28.1519 27.7724 28.3329C27.8739 28.4864 28.0426 28.5958 28.2838 28.5965C29.1338 28.5985 29.9838 28.6007 30.8335 28.6027C26.9116 34.8339 17.3926 35.4049 12.9243 29.0061C11.4932 26.9569 8.10701 28.9136 9.55304 30.985C12.7079 35.5026 17.8896 38.0888 23.4272 37.4549C28.7555 36.8446 33.056 33.399 35.1913 28.6135C36.1049 28.6159 37.0188 28.618 37.9328 28.6205C38.4142 28.6219 38.7699 28.064 38.4989 27.6392Z" fill="white"/>
</svg>
